<?xml version="1.0" standalone="no"?>
<!DOCTYPE svg PUBLIC "-//W3C//DTD SVG 20010904//EN"
 "http://www.w3.org/TR/2001/REC-SVG-20010904/DTD/svg10.dtd">
<svg version="1.0" xmlns="http://www.w3.org/2000/svg"
 width="300.000000pt" height="300.000000pt" viewBox="0 0 300.000000 300.000000"
 preserveAspectRatio="xMidYMid meet">
<metadata>
Created by potrace 1.11, written by Peter Selinger 2001-2013
</metadata>
<g transform="translate(0.000000,300.000000) scale(0.100000,-0.100000)"
fill="#000000" stroke="none">
<path d="M12 2992 c-10 -7 -12 -313 -10 -1498 l3 -1489 1495 0 1495 0 3 1489
c2 1185 0 1491 -10 1498 -7 4 -677 8 -1488 8 -811 0 -1481 -4 -1488 -8z m770
-1236 c24 -13 32 -13 59 1 21 10 48 14 87 11 91 -8 92 -12 92 -254 l0 -204
-50 0 -50 0 -2 193 -3 192 -25 0 -25 0 -3 -192 -2 -193 -50 0 -50 0 -2 193 -3
192 -27 3 -28 3 0 -195 0 -196 -50 0 -50 0 0 201 c0 209 4 233 43 249 34 14
109 11 139 -4z m941 -14 c19 -19 22 -33 22 -96 0 -46 -5 -79 -13 -89 -12 -14
-11 -20 2 -39 11 -15 16 -45 16 -96 0 -64 -3 -76 -25 -97 -21 -22 -33 -25 -94
-25 -85 0 -117 13 -131 53 -14 43 -12 112 5 153 10 25 12 41 5 54 -13 25 -13
146 1 171 16 30 47 39 122 36 54 -2 71 -7 90 -25z m328 -1 c16 -19 19 -40 19
-120 0 -122 -7 -134 -87 -141 l-58 -5 -3 -42 -3 -42 73 -3 73 -3 3 -37 3 -38
-120 0 -121 0 0 103 c0 129 6 140 87 147 l58 5 3 63 3 63 -33 -3 c-25 -2 -33
-8 -33 -23 0 -17 -8 -20 -47 -23 -47 -3 -48 -3 -48 27 0 40 18 77 44 90 11 6
54 10 95 8 63 -2 76 -6 92 -26z m-761 -21 l0 -40 -50 0 -50 0 0 -54 0 -55 48
-3 47 -3 0 -40 0 -40 -47 -3 -48 -3 0 -85 0 -84 -50 0 -50 0 0 225 0 225 100
0 100 0 0 -40z m942 -52 l3 -93 38 -3 37 -3 0 95 0 96 45 0 45 0 0 -225 0
-225 -45 0 -45 0 0 90 0 90 -60 0 c-92 0 -100 12 -100 155 l0 115 40 0 39 0 3
-92z m168 -428 c0 -7 -307 -10 -900 -10 -593 0 -900 3 -900 10 0 7 307 10 900
10 593 0 900 -3 900 -10z"/>
<path d="M1590 1636 l0 -56 36 0 35 0 -3 53 c-3 51 -4 52 -35 55 l-33 3 0 -55z"/>
<path d="M1587 1493 c-4 -3 -7 -30 -7 -60 l0 -53 40 0 40 0 0 60 0 60 -33 0
c-19 0 -37 -3 -40 -7z"/>
</g>
</svg>
